<svg id="visual" viewBox="0 0 900 600" width="900" height="600" xmlns="http://www.w3.org/2000/svg" xmlns:xlink="http://www.w3.org/1999/xlink" version="1.1">
    <!-- Gelombang 1 -->
    <path d="M0 188L21.5 188C43 188 86 188 128.8 197.5C171.7 207 214.3 226 257.2 220.5C300 215 343 185 385.8 178.8C428.7 172.7 471.3 190.3 514.2 199.8C557 209.3 600 210.7 642.8 209C685.7 207.3 728.3 202.7 771.2 203.3C814 204 857 210 878.5 213L900 216L900 0L0 0Z" fill="#009473"></path>
    
    <!-- Gelombang 2 -->
    <path d="M0 190L21.5 180.3C43 170.7 86 151.3 128.8 141.7C171.7 132 214.3 132 257.2 143C300 154 343 176 385.8 180.2C428.7 184.3 471.3 170.7 514.2 163.5C557 156.3 600 155.7 642.8 153.2C685.7 150.7 728.3 146.3 771.2 148.8C814 151.3 857 160.7 878.5 165.3L900 170L900 0L0 0Z" fill="#018065"></path>
    
    <!-- Gelombang 3 -->
    <path d="M0 89L21.5 90C43 91 86 93 128.8 97C171.7 101 214.3 107 257.2 109.7C300 112.3 343 111.7 385.8 113.2C428.7 114.7 471.3 118.3 514.2 120.3C557 122.3 600 122.7 642.8 127.3C685.7 132 728.3 141 771.2 136.3C814 131.7 857 113.3 878.5 104.2L900 95L900 0L0 0Z" fill="#046d57"></path>
    
    <!-- Gelombang 4 -->
    <path d="M0 115L21.5 107.8C43 100.7 86 86.3 128.8 83.3C171.7 80.3 214.3 88.7 257.2 92.7C300 96.7 343 96.3 385.8 97.7C428.7 99 471.3 102 514.2 95.7C557 89.3 600 73.7 642.8 69.3C685.7 65 728.3 72 771.2 82C814 92 857 105 878.5 111.5L900 118L900 0L0 0Z" fill="#075b49"></path>
    
    <!-- Gelombang 5 -->
    <path d="M0 61L21.5 56.5C43 52 86 43 128.8 40.8C171.7 38.7 214.3 43.3 257.2 43.2C300 43 343 38 385.8 36.2C428.7 34.3 471.3 35.7 514.2 38.2C557 40.7 600 44.3 642.8 47.5C685.7 50.7 728.3 53.3 771.2 53.5C814 53.7 857 51.3 878.5 50.2L900 49L900 0L0 0Z" fill="#08493b"></path>
</svg>
