<svg id="visual" viewBox="0 0 900 600" width="900" height="600" xmlns="http://www.w3.org/2000/svg" xmlns:xlink="http://www.w3.org/1999/xlink" version="1.1">
    <!-- Gelombang pertama (terbawah) -->
    <path d="M0 134L21.5 143.2C43 152.3 86 170.7 128.8 174.2C171.7 177.7 214.3 166.3 257.2 160.5C300 154.7 343 154.3 385.8 156.5C428.7 158.7 471.3 163.3 514.2 161.7C557 160 600 152 642.8 151.2C685.7 150.3 728.3 156.7 771.2 162.2C814 167.7 857 172.3 878.5 174.7L900 177V0H0Z" fill="#033026" />
    
    <!-- Gelombang kedua -->
    <path d="M0 145L21.5 142.2C43 139.3 86 133.7 128.8 137.7C171.7 141.7 214.3 155.3 257.2 153.3C300 151.3 343 133.7 385.8 124C428.7 114.3 471.3 112.7 514.2 120.7C557 128.7 600 146.3 642.8 152.2C685.7 158 728.3 152 771.2 148.5C814 145 857 144 878.5 143.5L900 143V0H0Z" fill="#024335" />
    
    <!-- Gelombang ketiga -->
    <path d="M0 133L21.5 135.3C43 137.7 86 142.3 128.8 141.5C171.7 140.7 214.3 134.3 257.2 126C300 117.7 343 107.3 385.8 110.3C428.7 113.3 471.3 129.7 514.2 130.3C557 131 600 116 642.8 113.5C685.7 111 728.3 121 771.2 126.2C814 131.3 857 131.7 878.5 131.8L900 132V0H0Z" fill="#015643" />
    
    <!-- Gelombang keempat -->
    <path d="M0 108L21.5 106.8C43 105.7 86 103.3 128.8 99.5C171.7 95.7 214.3 90.3 257.2 85.2C300 80 343 75 385.8 76.7C428.7 78.3 471.3 86.7 514.2 91.5C557 96.3 600 97.7 642.8 97C685.7 96.3 728.3 93.7 771.2 94.2C814 94.7 857 98.3 878.5 100.2L900 102V0H0Z" fill="#016a53" />
    
    <!-- Gelombang kelima -->
    <path d="M0 64L21.5 60.7C43 57.3 86 50.7 128.8 51C171.7 51.3 214.3 58.7 257.2 65C300 71.3 343 76.7 385.8 72.3C428.7 68 471.3 54 514.2 53.5C557 53 600 66 642.8 72C685.7 78 728.3 77 771.2 72.8C814 68.7 857 61.3 878.5 57.7L900 54V0H0Z" fill="#007f63" />
    
    <!-- Gelombang keenam (teratas) -->
    <path d="M0 47L21.5 47.8C43 48.7 86 50.3 128.8 46.5C171.7 42.7 214.3 33.3 257.2 32.8C300 32.3 343 40.7 385.8 42.2C428.7 43.7 471.3 38.3 514.2 33.3C557 28.3 600 23.7 642.8 20.5C685.7 17.3 728.3 15.7 771.2 15.3C814 15 857 16 878.5 16.5L900 17V0H0Z" fill="#009473" />
</svg>