<?xml version="1.0" encoding="utf-8"?>
<!-- Generator: Adobe Illustrator 27.5.0, SVG Export Plug-In . SVG Version: 6.00 Build 0)  -->
<svg version="1.1" id="Layer_1" xmlns="http://www.w3.org/2000/svg" xmlns:xlink="http://www.w3.org/1999/xlink" x="0px" y="0px"
        viewBox="0 0 6000 4000" style="enable-background:new 0 0 6000 4000;" xml:space="preserve">
      <g id="Layer_1">
        <!-- <rect class="svg-layer fade-in" style="fill-rule:evenodd;clip-rule:evenodd;fill:#F2F9F1;" width="6000" height="4000"/> -->
        <g id="Layar_2">
          <path class="svg-layer fade-in" style="fill-rule:evenodd;clip-rule:evenodd;fill:#D5EAD0;" d="M0.001,0h18.81C12.476,5.002,6.208,10.084,0.001,15.238V0
            L0.001,0z M1224.813,0c30.014,23.698,58.608,49.117,85.613,76.124c176.23,176.229,285.232,419.692,285.232,688.614
            c0,268.92-109.002,512.385-285.232,688.613c-176.229,176.23-419.693,285.231-688.613,285.231
            c-236.408,0-453.135-84.249-621.811-224.344v32.217c170.622,135.901,386.727,217.129,621.811,217.129
            c275.82,0,525.535-111.801,706.29-292.557c180.756-180.755,292.557-430.469,292.557-706.29
            c0-275.823-111.801-525.535-292.557-706.29c-20.383-20.383-41.65-39.88-63.727-58.448H1224.813z"/>
          <path class="svg-layer fade-in" style="fill-rule:evenodd;clip-rule:evenodd;fill:#D5EAD0;" d="M264.626,0h63.884
            C220.36,41.505,123.247,105.28,42.801,185.726c-14.85,14.85-29.121,30.277-42.8,46.226v-37.66
            c8.191-8.923,16.56-17.68,25.123-26.243C94.165,99.01,175.115,41.881,264.626,0L264.626,0z M915.116,0
            c108.15,41.505,205.263,105.28,285.709,185.726c148.18,148.18,239.833,352.893,239.833,579.012
            c0,226.118-91.654,430.832-239.833,579.012c-148.18,148.18-352.893,239.833-579.012,239.833
            c-226.118,0-430.832-91.653-579.012-239.833c-14.85-14.85-29.121-30.276-42.8-46.226v37.659
            c8.191,8.923,16.56,17.68,25.123,26.243c152.706,152.706,363.67,247.159,596.688,247.159
            c233.019,0,443.983-94.453,596.688-247.159s247.159-363.67,247.159-596.688c0-233.019-94.453-443.983-247.159-596.688
            C1149.461,99.01,1068.51,41.881,978.999,0H915.116z"/>
          <path class="svg-layer fade-in" style="fill-rule:evenodd;clip-rule:evenodd;fill:#D5EAD0;" d="M0.001,1061.498v-63.811
            c33.588,89.62,85.985,170.047,152.4,236.461c120.131,120.131,286.095,194.435,469.411,194.435
            c183.317,0,349.28-74.304,469.41-194.435c120.131-120.13,194.435-286.094,194.435-469.41c0-183.317-74.305-349.28-194.435-469.412
            c-120.13-120.13-286.094-194.434-469.41-194.434c-183.316,0-349.28,74.304-469.411,194.434
            C85.987,361.741,33.589,442.169,0.001,531.789v-63.811c33.952-71.011,79.701-135.305,134.724-190.328
            C259.382,152.994,431.595,75.89,621.813,75.89c190.215,0,362.431,77.104,487.087,201.76
            c124.657,124.657,201.761,296.87,201.761,487.088c0,190.218-77.104,362.43-201.761,487.086
            c-124.656,124.657-296.869,201.761-487.087,201.761c-190.217,0-362.43-77.104-487.087-201.761
            C79.702,1196.802,33.953,1132.51,0.001,1061.498z"/>
          <path class="svg-layer fade-in" style="fill-rule:evenodd;clip-rule:evenodd;fill:#D5EAD0;" d="M621.813,230.89c147.415,0,280.879,59.755,377.486,156.362
            s156.362,230.072,156.362,377.486s-59.755,280.879-156.362,377.486c-96.607,96.607-230.072,156.361-377.486,156.361
            s-280.879-59.754-377.486-156.361c-96.607-96.607-156.361-230.072-156.361-377.486s59.754-280.879,156.361-377.486
            C340.933,290.645,474.398,230.89,621.813,230.89L621.813,230.89z M981.622,404.928c-92.081-92.081-219.295-149.036-359.81-149.036
            s-267.729,56.955-359.81,149.036c-92.081,92.081-149.036,219.296-149.036,359.81s56.955,267.729,149.036,359.81
            c92.081,92.081,219.295,149.036,359.81,149.036s267.729-56.955,359.81-149.036c92.081-92.081,149.036-219.295,149.036-359.81
            S1073.704,497.009,981.622,404.928z"/>
          <path class="svg-layer fade-in" style="fill-rule:evenodd;clip-rule:evenodd;fill:#D5EAD0;" d="M621.813,385.89c104.614,0,199.327,42.405,267.885,110.963
            c68.557,68.557,110.964,163.271,110.964,267.885s-42.407,199.326-110.964,267.885c-68.558,68.557-163.271,110.963-267.885,110.963
            c-104.614,0-199.328-42.406-267.885-110.963c-68.558-68.558-110.963-163.271-110.963-267.885S285.37,565.41,353.928,496.853
            C422.485,428.295,517.199,385.89,621.813,385.89L621.813,385.89z M872.021,514.53c-64.032-64.033-152.496-103.638-250.208-103.638
            S435.635,450.497,371.604,514.53c-64.032,64.031-103.638,152.495-103.638,250.208c0,97.713,39.606,186.176,103.638,250.208
            c64.031,64.031,152.496,103.638,250.208,103.638s186.176-39.607,250.208-103.638c64.031-64.032,103.638-152.495,103.638-250.208
            C975.659,667.025,936.052,578.56,872.021,514.53z"/>
        </g>
        <path class="svg-layer fade-in" style="fill-rule:evenodd;clip-rule:evenodd;fill:#953867;" d="M0.001,1437.995
          c167.733-263.516,410.518-536.788,658.7-546.717C1457.966,859.299,1747.332,1740.646,2465.616,0H0.001V1437.995z"/>
        <path class="svg-layer fade-in" style="fill-rule:evenodd;clip-rule:evenodd;fill:#81CDC1;" d="M556.722,2240.992c0-201.229-278.361-459.646-344.067-736.547
          c-28.493-120.078-16.996-243.633,5.165-362.605c28.943-155.378,76.077-302.937,76.077-424.728
          c0-215.045-146.948-349.748-293.896-484.451v1205.333V2730.31C278.361,2586.266,556.722,2442.223,556.722,2240.992z"/>
        <path class="svg-layer fade-in" style="fill-rule:evenodd;clip-rule:evenodd;fill:#F26132;" d="M563.747,0c240.965,355.626,481.931,711.253,744.97,711.253
          c263.037,0,548.15-355.627,810.268-430.124c94.355-26.817,185.73-17.205,272.659,6.082
          c154.564,41.408,295.073,126.053,413.29,126.053c184.706,0,314.991-206.633,445.275-413.266h-784.592H563.747z"/>
        <path class="svg-layer fade-in" style="fill-rule:evenodd;clip-rule:evenodd;fill:#F26132;" d="M169.002,3276.44c19.425,33.645,62.447,45.173,96.092,25.747
          c33.645-19.425,45.172-62.446,25.747-96.091c-19.424-33.646-62.446-45.174-96.091-25.749
          C161.105,3199.772,149.577,3242.794,169.002,3276.44z"/>
        <path class="svg-layer fade-in" style="fill-rule:evenodd;clip-rule:evenodd;fill:#953867;" d="M169.002,2992.325c19.425,33.645,62.447,45.172,96.092,25.747
          c33.645-19.425,45.172-62.446,25.748-96.091c-19.425-33.645-62.447-45.174-96.092-25.748
          C161.105,2915.657,149.577,2958.68,169.002,2992.325z"/>
        <path class="svg-layer fade-in" style="fill-rule:evenodd;clip-rule:evenodd;fill:#81CDC1;" d="M169.002,3561.243c19.424,33.645,62.446,45.172,96.091,25.748
          c33.646-19.426,45.174-62.447,25.748-96.092c-19.424-33.645-62.446-45.173-96.092-25.748
          C161.104,3484.576,149.576,3527.598,169.002,3561.243z"/>
        <g id="Layer_3" >
          <path class="svg-layer fade-in" style="fill-rule:evenodd;clip-rule:evenodd;fill:#D5EAD0;" d="M6000,4000h-18.811c6.335-5.002,12.604-10.084,18.811-15.238
            V4000L6000,4000z M4775.188,4000c-30.014-23.698-58.607-49.117-85.613-76.125c-176.23-176.229-285.231-419.692-285.231-688.614
            c0-268.92,109.001-512.385,285.231-688.614c176.229-176.23,419.693-285.231,688.613-285.231
            c236.408,0,453.135,84.249,621.812,224.344v-32.217c-170.622-135.901-386.727-217.129-621.812-217.129
            c-275.821,0-525.535,111.801-706.29,292.557c-180.756,180.755-292.557,430.469-292.557,706.29
            c0,275.823,111.801,525.535,292.557,706.29c20.382,20.383,41.65,39.88,63.726,58.448H4775.188z"/>
          <path class="svg-layer fade-in" style="fill-rule:evenodd;clip-rule:evenodd;fill:#D5EAD0;" d="M5735.375,4000h-63.883
            c108.15-41.505,205.263-105.28,285.708-185.726c14.85-14.85,29.122-30.277,42.8-46.226v37.66
            c-8.191,8.923-16.561,17.68-25.124,26.243C5905.837,3900.99,5824.886,3958.119,5735.375,4000L5735.375,4000z M5084.885,4000
            c-108.15-41.505-205.262-105.28-285.708-185.726c-148.18-148.18-239.833-352.894-239.833-579.012
            c0-226.118,91.653-430.832,239.833-579.012c148.18-148.18,352.893-239.833,579.012-239.833s430.832,91.653,579.012,239.833
            c14.85,14.85,29.122,30.276,42.8,46.226v-37.659c-8.191-8.923-16.561-17.68-25.124-26.243
            c-152.706-152.706-363.669-247.159-596.688-247.159s-443.982,94.453-596.688,247.159
            c-152.706,152.706-247.159,363.669-247.159,596.688c0,233.019,94.453,443.982,247.159,596.688
            c69.04,69.04,149.99,126.169,239.501,168.05H5084.885z"/>
          <path class="svg-layer fade-in" style="fill-rule:evenodd;clip-rule:evenodd;fill:#D5EAD0;" d="M6000,2938.502v63.811
            c-33.588-89.619-85.985-170.047-152.4-236.461c-120.131-120.131-286.095-194.435-469.412-194.435s-349.28,74.304-469.41,194.435
            c-120.131,120.13-194.436,286.094-194.436,469.41c0,183.317,74.304,349.281,194.436,469.412
            c120.13,120.13,286.094,194.434,469.41,194.434s349.28-74.304,469.412-194.434c66.415-66.415,118.812-146.843,152.4-236.463
            v63.812c-33.952,71.011-79.701,135.304-134.724,190.327c-124.657,124.656-296.87,201.76-487.088,201.76
            c-190.215,0-362.431-77.104-487.086-201.76c-124.657-124.657-201.761-296.87-201.761-487.088
            c0-190.218,77.104-362.431,201.761-487.087c124.656-124.657,296.869-201.76,487.086-201.76s362.431,77.103,487.088,201.76
            C5920.299,2803.198,5966.048,2867.49,6000,2938.502z"/>
          <path class="svg-layer fade-in" style="fill-rule:evenodd;clip-rule:evenodd;fill:#D5EAD0;" d="M5378.188,3769.11c-147.414,0-280.879-59.755-377.486-156.362
            c-96.607-96.607-156.362-230.072-156.362-377.486s59.754-280.879,156.362-377.486c96.607-96.607,230.072-156.361,377.486-156.361
            c147.415,0,280.879,59.754,377.486,156.361c96.607,96.607,156.361,230.072,156.361,377.486s-59.754,280.879-156.361,377.486
            C5659.068,3709.355,5525.604,3769.11,5378.188,3769.11L5378.188,3769.11z M5018.379,3595.072
            c92.081,92.081,219.295,149.036,359.81,149.036c140.515,0,267.729-56.955,359.81-149.036s149.036-219.295,149.036-359.81
            s-56.955-267.729-149.036-359.81c-92.081-92.081-219.295-149.036-359.81-149.036c-140.514,0-267.729,56.955-359.81,149.036
            c-92.082,92.081-149.037,219.295-149.037,359.81S4926.297,3502.991,5018.379,3595.072z"/>
          <path class="svg-layer fade-in" style="fill-rule:evenodd;clip-rule:evenodd;fill:#D5EAD0;" d="M5378.188,3614.11c-104.613,0-199.326-42.406-267.885-110.964
            c-68.557-68.557-110.963-163.271-110.963-267.885s42.406-199.326,110.963-267.885c68.559-68.557,163.271-110.963,267.885-110.963
            c104.614,0,199.328,42.406,267.885,110.963c68.559,68.558,110.963,163.271,110.963,267.885s-42.405,199.328-110.963,267.885
            C5577.516,3571.705,5482.803,3614.11,5378.188,3614.11L5378.188,3614.11z M5127.98,3485.47
            c64.032,64.032,152.495,103.638,250.208,103.638s186.177-39.606,250.208-103.638c64.033-64.031,103.639-152.495,103.639-250.208
            c0-97.713-39.606-186.176-103.639-250.208c-64.031-64.031-152.495-103.638-250.208-103.638s-186.176,39.607-250.208,103.638
            c-64.031,64.033-103.638,152.496-103.638,250.208C5024.342,3332.975,5063.949,3421.439,5127.98,3485.47z"/>
        </g>
        <path class="svg-layer fade-in" style="fill-rule:evenodd;clip-rule:evenodd;fill:#953867;" d="M6000,2562.005
          c-167.733,263.516-410.518,536.788-658.7,546.717c-799.265,31.978-1088.632-849.369-1806.915,891.278H6000V2562.005z"/>
        <path class="svg-layer fade-in" style="fill-rule:evenodd;clip-rule:evenodd;fill:#81CDC1;" d="M5443.279,1759.008c0,201.229,278.361,459.646,344.067,736.547
          c28.493,120.078,16.996,243.633-5.165,362.605c-28.943,155.377-76.077,302.937-76.077,424.728
          c0,215.044,146.948,349.748,293.896,484.451V2562.005V1269.69C5721.64,1413.734,5443.279,1557.777,5443.279,1759.008z"/>
        <path class="svg-layer fade-in" style="fill-rule:evenodd;clip-rule:evenodd;fill:#F26132;" d="M5436.254,4000
          c-240.965-355.626-481.931-711.253-744.97-711.253c-263.038,0-548.15,355.627-810.268,430.124
          c-94.355,26.817-185.729,17.205-272.659-6.083c-154.564-41.408-295.074-126.053-413.29-126.053
          c-184.706,0-314.991,206.633-445.275,413.265h784.592H5436.254z"/>
        <path class="svg-layer fade-in" style="fill-rule:evenodd;clip-rule:evenodd;fill:#F26132;" d="M5831,723.56c-19.425-33.645-62.447-45.173-96.092-25.747
          c-33.645,19.424-45.173,62.446-25.747,96.091c19.424,33.646,62.446,45.174,96.091,25.748
          C5838.896,800.228,5850.424,757.206,5831,723.56z"/>
        <path class="svg-layer fade-in" style="fill-rule:evenodd;clip-rule:evenodd;fill:#953867;" d="M5831,1007.675c-19.425-33.645-62.447-45.172-96.092-25.747
          c-33.645,19.425-45.173,62.446-25.748,96.091c19.425,33.645,62.447,45.174,96.092,25.748
          C5838.896,1084.343,5850.424,1041.32,5831,1007.675z"/>
        <path class="svg-layer fade-in" style="fill-rule:evenodd;clip-rule:evenodd;fill:#81CDC1;" d="M5831,438.757c-19.424-33.645-62.446-45.173-96.091-25.748
          c-33.646,19.425-45.174,62.447-25.748,96.092c19.424,33.645,62.446,45.173,96.092,25.748
          C5838.897,515.424,5850.425,472.402,5831,438.757z"/>
      </g>
      </svg>