<svg id="visual" viewBox="0 0 900 600" width="900" height="600" xmlns="http://www.w3.org/2000/svg" xmlns:xlink="http://www.w3.org/1999/xlink" version="1.1">

  <g id="layer-1">
    <path d="M0 195L21.5 195.7C43 196.3 86 197.7 128.8 196.3C171.7 195 214.3 191 257.2 193C300 195 343 203 385.8 201.2C428.7 199.3 471.3 187.7 514.2 179.5C557 171.3 600 166.7 642.8 176C685.7 185.3 728.3 208.7 771.2 216.7C814 224.7 857 217.3 878.5 213.7L900 210L900 0L878.5 0C857 0 814 0 771.2 0C728.3 0 685.7 0 642.8 0C600 0 557 0 514.2 0C471.3 0 428.7 0 385.8 0C343 0 300 0 257.2 0C214.3 0 171.7 0 128.8 0C86 0 43 0 21.5 0L0 0Z" fill="#96e072"/>
  </g>

  <g id="layer-2">
    <path d="M0 131L21.5 140.8C43 150.7 86 170.3 128.8 176.2C171.7 182 214.3 174 257.2 174.8C300 175.7 343 185.3 385.8 187.2C428.7 189 471.3 183 514.2 180.2C557 177.3 600 177.7 642.8 178.8C685.7 180 728.3 182 771.2 181.2C814 180.3 857 176.7 878.5 174.8L900 173L900 0L878.5 0C857 0 814 0 771.2 0C728.3 0 685.7 0 642.8 0C600 0 557 0 514.2 0C471.3 0 428.7 0 385.8 0C343 0 300 0 257.2 0C214.3 0 171.7 0 128.8 0C86 0 43 0 21.5 0L0 0Z" fill="#72b759"/>
  </g>

  <g id="layer-3">
    <path d="M0 155L21.5 146C43 137 86 119 128.8 116C171.7 113 214.3 125 257.2 128.2C300 131.3 343 125.7 385.8 129.3C428.7 133 471.3 146 514.2 151.7C557 157.3 600 155.7 642.8 146.7C685.7 137.7 728.3 121.3 771.2 110.8C814 100.3 857 95.7 878.5 93.3L900 91L900 0L878.5 0C857 0 814 0 771.2 0C728.3 0 685.7 0 642.8 0C600 0 557 0 514.2 0C471.3 0 428.7 0 385.8 0C343 0 300 0 257.2 0C214.3 0 171.7 0 128.8 0C86 0 43 0 21.5 0L0 0Z" fill="#518f40"/>
  </g>

  <g id="layer-4">
    <path d="M0 96L21.5 93C43 90 86 84 128.8 81.5C171.7 79 214.3 80 257.2 86.2C300 92.3 343 103.7 385.8 100.5C428.7 97.3 471.3 79.7 514.2 72.7C557 65.7 600 69.3 642.8 77.7C685.7 86 728.3 99 771.2 104.2C814 109.3 857 106.7 878.5 105.3L900 104L900 0L878.5 0C857 0 814 0 771.2 0C728.3 0 685.7 0 642.8 0C600 0 557 0 514.2 0C471.3 0 428.7 0 385.8 0C343 0 300 0 257.2 0C214.3 0 171.7 0 128.8 0C86 0 43 0 21.5 0L0 0Z" fill="#326928"/>
  </g>

  <g id="layer-5">
    <path d="M0 24L21.5 31.3C43 38.7 86 53.3 128.8 56.2C171.7 59 214.3 50 257.2 51C300 52 343 63 385.8 64.8C428.7 66.7 471.3 59.3 514.2 57.7C557 56 600 60 642.8 56.3C685.7 52.7 728.3 41.3 771.2 37C814 32.7 857 35.3 878.5 36.7L900 38L900 0L878.5 0C857 0 814 0 771.2 0C728.3 0 685.7 0 642.8 0C600 0 557 0 514.2 0C471.3 0 428.7 0 385.8 0C343 0 300 0 257.2 0C214.3 0 171.7 0 128.8 0C86 0 43 0 21.5 0L0 0Z" fill="#134611"/>
  </g>

</svg>
